<svg width="100" height="100" viewBox="0 0 100 100" fill="none" xmlns="http://www.w3.org/2000/svg">
<rect width="100" height="100" fill="#855DCD"/>
<path d="M31.6095 23H67.7278V76H62.426V51.7226H62.374C61.7881 45.0129 56.3234 39.7548 49.6686 39.7548C43.0139 39.7548 37.5492 45.0129 36.9632 51.7226H36.9112V76H31.6095V23Z" fill="white"/>
<path d="M22 30.5226L24.1538 38.0452H25.9763V68.4774C25.0613 68.4774 24.3195 69.2429 24.3195 70.1871V72.2387H23.9882C23.0731 72.2387 22.3314 73.0042 22.3314 73.9484V76H40.8876V73.9484C40.8876 73.0042 40.1458 72.2387 39.2308 72.2387H38.8994V70.1871C38.8994 69.2429 38.1576 68.4774 37.2426 68.4774H35.2544V30.5226H22Z" fill="white"/>
<path d="M62.7574 68.4774C61.8424 68.4774 61.1006 69.2429 61.1006 70.1871V72.2387H60.7692C59.8542 72.2387 59.1124 73.0042 59.1124 73.9484V76H77.6686V73.9484C77.6686 73.0042 76.9269 72.2387 76.0118 72.2387H75.6805V70.1871C75.6805 69.2429 74.9387 68.4774 74.0237 68.4774V38.0452H75.8462L78 30.5226H64.7456V68.4774H62.7574Z" fill="white"/>
</svg>
