<svg xmlns="http://www.w3.org/2000/svg" width="33" height="32" fill="none"><path fill="#000" d="M27.568 14.059c0-.968-.318-1.848-.87-2.547l-5.831 5.83c.71.55 1.592.87 2.548.87 2.303-.002 4.166-1.863 4.153-4.153Zm-17.347 4.139c-2.291.012-4.153-1.85-4.153-4.152 0-.955.318-1.837.87-2.547l5.831 5.829c-.698.55-1.58.87-2.548.87Zm-4.509-7.9A5.839 5.839 0 0 0 4.34 14.07a5.881 5.881 0 0 0 9.654 4.506l2.83 2.828 2.83-2.828a5.881 5.881 0 0 0 9.653-4.506 5.861 5.861 0 0 0-1.371-3.771l2.584-2.584a15.91 15.91 0 0 1 2.316 8.291c0 8.842-7.166 15.994-16 15.994-8.832 0-16-7.165-16-15.994a15.613 15.613 0 0 1 2.292-8.29l2.584 2.583Zm11.124 8.658L29.53 6.27a18.66 18.66 0 0 0-1.128-1.31C25.486 1.912 21.381 0 16.825 0S8.151 1.91 5.247 4.96a10.95 10.95 0 0 0-1.104 1.297l12.693 12.7ZM26.662 6.16l-9.837 9.834L6.988 6.16c2.61-2.633 6.089-4.078 9.837-4.078 3.749 0 7.215 1.445 9.837 4.078Z"/></svg>