<svg width="100" height="100" viewBox="0 0 100 100" fill="none" xmlns="http://www.w3.org/2000/svg">
<g clip-path="url(#clip0_35_487)">
<path d="M50 775C450.406 775 775 450.406 775 50C775 -350.406 450.406 -675 50 -675C-350.406 -675 -675 -350.406 -675 50C-675 450.406 -350.406 775 50 775Z" fill="url(#paint0_linear_35_487)"/>
<path fill-rule="evenodd" clip-rule="evenodd" d="M26.7328 47.3722C41.3089 41.0217 51.0285 36.835 55.8917 34.8122C69.7773 29.0367 72.6625 28.0335 74.5431 28.0004C74.9568 27.9931 75.8816 28.0956 76.4806 28.5817C76.9865 28.9921 77.1257 29.5466 77.1923 29.9357C77.2589 30.3249 77.3418 31.2114 77.2759 31.9041C76.5234 39.8102 73.2675 58.9965 71.6111 67.8515C70.9102 71.5984 69.5301 72.8548 68.1941 72.9777C65.2905 73.2449 63.0856 71.0588 60.2733 69.2153C55.8727 66.3306 53.3866 64.5349 49.115 61.72C44.1784 58.4669 47.3786 56.6789 50.1919 53.7569C50.9282 52.9921 63.7215 41.3556 63.9691 40.3C64.0001 40.168 64.0288 39.6759 63.7365 39.416C63.4441 39.1562 63.0126 39.245 62.7012 39.3157C62.2599 39.4159 55.2298 44.0625 41.611 53.2556C39.6155 54.6259 37.8081 55.2935 36.1887 55.2585C34.4034 55.2199 30.9693 54.2491 28.4164 53.4192C25.2851 52.4014 22.7964 51.8632 23.0132 50.1346C23.126 49.2343 24.3659 48.3135 26.7328 47.3722Z" fill="white"/>
</g>
<defs>
<linearGradient id="paint0_linear_35_487" x1="71825" y1="-675" x2="71825" y2="143250" gradientUnits="userSpaceOnUse">
<stop stop-color="#2AABEE"/>
<stop offset="1" stop-color="#229ED9"/>
</linearGradient>
<clipPath id="clip0_35_487">
<rect width="100" height="100" rx="2" fill="white"/>
</clipPath>
</defs>
</svg>
